# xmcd CD database file
#
# Track frame offsets:
#	150
#	14922
#	21617
#	36315
#	43000
#
# Disc length: 768 seconds
#
# Revision: 0
# Processed by: cddbd v1.4PL0 Copyright (c) Steve Scherf et al.
# Submitted via: CDex 1.40Release
#
DISCID=4502fe05
DTITLE=Toby Keith - The Angry American
DYEAR=2002
DGENRE=Country
TTITLE0=Courtesy Of The Red, White, And Blue (The Angry American)
TTITLE1=Live Introduction by Toby of Single
TTITLE2=Courtesy Of The Red, White, And Blue (The Angry American)
TTITLE3=Live Introduction by Toby of Single
TTITLE4=Courtesy Of The Red, White, And Blue (The Angry American)
EXTD=YEAR: 2002 ID3G: 2
EXTT0=
EXTT1=
EXTT2=
EXTT3=
EXTT4=
PLAYORDER=
